<svg width="8" height="13" viewBox="0 0 8 13" fill="none" xmlns="http://www.w3.org/2000/svg">
<path d="M7.02363 6.58323C7.00478 6.71102 6.94825 6.82922 6.86031 6.92186L2.03606 12.0335C1.92849 12.1629 1.7738 12.2412 1.60813 12.25C1.44245 12.2596 1.27992 12.1989 1.15978 12.0831C1.03886 11.9665 0.971329 11.8043 0.972115 11.6358C0.972115 11.4665 1.04121 11.3059 1.16292 11.1901L5.59138 6.50005L1.16292 1.80998C1.04121 1.69417 0.972115 1.53362 0.972115 1.3643C0.97133 1.19578 1.03886 1.03364 1.15978 0.917032C1.27991 0.801221 1.44244 0.74052 1.60813 0.750103C1.77381 0.758888 1.9285 0.837161 2.03606 0.966552L6.8595 6.07823C6.98671 6.21241 7.04638 6.39851 7.02282 6.58302L7.02363 6.58323Z" fill="white"/>
</svg>
