<svg width="1440" height="721" viewBox="0 0 1440 721" fill="none" xmlns="http://www.w3.org/2000/svg">
    <mask id="obdzs721oa" style="mask-type:alpha" maskUnits="userSpaceOnUse" x="0" y="0" width="1440" height="721">
        <path fill="#D9D9D9" d="M0 0h1440v721H0z"/>
    </mask>
    <g mask="url(#obdzs721oa)">
        <path d="M-346.481 74.698c11.76 0 138.797 20.041 235.855-8.944 79.17-23.685 201.405-47.37 242.481-45.548 66.251 2.816 109.646 23.851 179.375 47.37 51.842 17.391 109.978 8.613 139.791 4.803 62.111-7.784 121.24-36.272 190.804-37.597 100.371-1.822 156.022 25.507 242.811 41.076 97.887 17.556 182.024-31.967 261.694-33.623 79.67-1.656 157.02 35.776 186 35.776 52.84 0 64.1-10.435 104.68-10.435 33.29 0 38.26 8.282 59.96 7.122H1518v371.174H-370V74.698h23.519z" fill="#D5CBC0"/>
        <path d="M787.412 19.047c0-2.319-1.822-4.306-4.14-4.472.497-.497.828-1.325.828-1.987 0-1.16-.663-2.153-1.656-2.65.165-.332.331-.828.331-1.325a2.969 2.969 0 0 0-2.981-2.982c-.663 0-1.326.332-1.988.663-.497-.497-1.325-.663-1.988-.828.166-.332.166-.828.166-1.16 0-2.318-1.988-4.306-4.306-4.306-1.988 0-3.81 1.49-4.141 3.313-.331-.829-1.159-1.491-2.319-1.491-1.325 0-2.484.994-2.484 2.319v.331c-.497-.166-.994-.331-1.656-.331-2.982 0-5.466 2.319-5.466 5.3 0 .828.165 1.49.497 2.153-1.16.331-2.154 1.49-2.154 2.816 0 .33 0 .662.166.993h-.166a2.969 2.969 0 0 0-2.981 2.982 2.969 2.969 0 0 0 2.981 2.981c.497 0 1.16-.165 1.491-.497l.994.994c-.828.663-1.491 1.656-1.491 2.816 0 1.822 1.491 3.478 3.478 3.478.829 0 1.491-.331 2.154-.828.496 1.16 1.822 1.987 3.147 1.987.993 0 1.987-.497 2.65-1.16.165.498.496.995.828 1.492v28.488h3.312V31.138c1.822 0 3.313-1.16 3.81-2.816a4.497 4.497 0 0 0 2.815.994c1.491 0 2.816-.828 3.644-1.822.332.166.828.332 1.325.332 1.325 0 2.485-.994 2.485-2.32 0-.827-.497-1.49-1.16-1.987 2.65-.662 3.975-2.484 3.975-4.472zM750.312 29.15c0-1.159-.829-2.153-1.988-2.153.331-.33.331-.662.331-.993 0-.497-.331-.994-.828-1.325.166-.166.166-.497.166-.663 0-.828-.663-1.49-1.491-1.49-.331 0-.662.165-.994.33-.331-.165-.662-.33-.993-.33 0-.166.165-.332.165-.663 0-1.16-.994-1.988-2.153-1.988-.994 0-1.822.663-1.988 1.657-.165-.497-.662-.663-1.159-.663-.663 0-1.159.497-1.159 1.16v.165c-.166 0-.497-.165-.829-.165-1.49 0-2.65 1.159-2.65 2.65 0 .33 0 .662.166.993-.663.166-.994.663-.994 1.325 0 .166 0 .332.166.497h-.166c-.828 0-1.49.663-1.49 1.49 0 .83.662 1.492 1.49 1.492.332 0 .497 0 .828-.166l.497.497c-.497.331-.662.828-.662 1.325 0 .994.828 1.656 1.656 1.656.331 0 .828-.165.994-.331.331.497.828.994 1.491.994.496 0 .993-.166 1.325-.497.165.331.165.497.331.662v16.729h1.656v-15.9c.828 0 1.656-.663 1.822-1.326.331.332.828.497 1.325.497.828 0 1.325-.33 1.822-.993.166.165.331.165.662.165.663 0 1.16-.497 1.16-1.16 0-.33-.166-.827-.497-.993 1.325-.663 1.988-1.49 1.988-2.484z" fill="#E8DDD0"/>
        <path d="M-373 836V113.081h26.85c28.769 0 165.718 11.992 221.528 11.992 72.496 0 180.46-40.656 252.572-53.58 125.621-22.7 134.252 9.941 275.791 47.552 117.566 31.15 148.253 18.06 188.912 5.302 54.659-17.231 103.581-28.278 176.076-27.284 123.13 14.369 120.428 66.552 244.131 65.889 64.44-.331 170.5-40.924 198.5-50.7 32.99-11.598 93.02-31.812 171.27-31.48 78.25.165 173.76 56.996 236.28 56.83 62.52-.165 68.66-13.917 98.39-21.042 13.81-3.314 42.77-4.639 71.34-3.314H1813v710.685" fill="#F5F0EB"/>
    </g>
</svg>
