<svg width="18" height="18" viewBox="0 0 18 18" fill="none" xmlns="http://www.w3.org/2000/svg">
    <path d="M8.318.438c.171-.363.45-.363.62 0l2.151 4.576c.171.362.622.707 1.003.765l4.81.735c.382.058.469.337.193.62l-3.481 3.561c-.276.282-.448.84-.383 1.239l.82 5.03c.066.398-.16.57-.5.382L9.247 14.97c-.341-.188-.9-.188-1.24 0l-4.303 2.374c-.34.188-.566.016-.501-.382l.821-5.03c.066-.399-.107-.956-.383-1.239l-3.48-3.56c-.276-.283-.19-.561.192-.62l4.81-.736c.381-.058.833-.403 1.003-.765L8.318.438z" fill="#F5C842"/>
</svg>
