<svg width="21" height="15" viewBox="0 0 21 15" fill="none" xmlns="http://www.w3.org/2000/svg">
    <path fill-rule="evenodd" clip-rule="evenodd" d="M11.626 0c1.82.004 4.227.027 6.004.192 1.42.132 1.775.345 2.149.684.968.877 1.184 3.253 1.216 5.617.007.509.007 1.019 0 1.528-.032 2.364-.248 4.74-1.216 5.617-.374.339-.73.552-2.15.684-1.776.165-4.183.188-6.003.19-.75.002-1.502.002-2.252 0-1.82-.002-4.227-.025-6.004-.19-1.42-.132-1.775-.345-2.149-.684C.245 12.753.033 10.344.004 7.96a58.57 58.57 0 0 1 0-1.345C.03 4.211.236 1.768 1.22.875c.374-.338.729-.55 2.15-.683C5.146.027 7.553.004 9.373.001h2.252z" fill="#F5F0EB"/>
    <path fill-rule="evenodd" clip-rule="evenodd" d="M8.445 4.239v6.229l5.298-3.211-5.298-3.018z" fill="#C41E3A"/>
</svg>
