<svg width="18" height="18" viewBox="0 0 18 18" fill="none" xmlns="http://www.w3.org/2000/svg">
    <g clip-path="url(#zbx0kisa2a)" fill-rule="evenodd" clip-rule="evenodd" fill="#fff">
        <path d="M12.764 16.653c1.023 0 1.989-.391 2.72-1.102a3.673 3.673 0 0 0 1.132-2.648V5.097c0-.996-.402-1.936-1.133-2.647a3.878 3.878 0 0 0-2.72-1.103H5.238c-1.024 0-1.99.391-2.72 1.103a3.673 3.673 0 0 0-1.133 2.647v7.806c0 .996.402 1.936 1.133 2.647a3.878 3.878 0 0 0 2.72 1.103h7.527zm0 1.347H5.237C2.357 18 0 15.706 0 12.903V5.097C0 2.294 2.356 0 5.237 0h7.527C15.643 0 18 2.294 18 5.097v7.806C18 15.706 15.644 18 12.764 18z"/>
        <path d="M9 5.788c-1.792 0-3.244 1.42-3.244 3.17S7.208 12.125 9 12.125c1.792 0 3.245-1.419 3.245-3.169S10.792 5.788 9 5.788zm4.979 3.165c0 2.673-2.219 4.84-4.955 4.84-2.737 0-4.955-2.167-4.955-4.84 0-2.672 2.218-4.839 4.955-4.839 2.736 0 4.955 2.167 4.955 4.84zM15.223 4.044c0 .633-.525 1.146-1.173 1.146-.647 0-1.172-.513-1.172-1.146 0-.632.525-1.145 1.172-1.145.648 0 1.173.513 1.173 1.145z"/>
    </g>
    <defs>
        <clipPath id="zbx0kisa2a">
            <path fill="#fff" d="M0 0h18v18H0z"/>
        </clipPath>
    </defs>
</svg>
