<svg width="13" height="13" viewBox="0 0 13 13" fill="none" xmlns="http://www.w3.org/2000/svg">
<path d="M6.00149 0C5.73611 0 5.52137 0.215634 5.52137 0.482116V5.54433H0.480119C0.214733 5.54433 0 5.75996 0 6.02645C0 6.29293 0.214741 6.50856 0.480119 6.50856H5.52137V11.5708C5.52137 11.8373 5.73611 12.0529 6.00149 12.0529C6.26687 12.0529 6.48161 11.8373 6.48161 11.5708V6.50856H11.5229C11.7883 6.50856 12.003 6.29293 12.003 6.02645C12.003 5.75996 11.7882 5.54433 11.5229 5.54433H6.48161V0.482116C6.48161 0.215626 6.26687 0 6.00149 0Z" fill="#2C1A0E"/>
</svg>
