<svg width="137" height="137" viewBox="0 0 137 137" fill="none" xmlns="http://www.w3.org/2000/svg">
<path fill-rule="evenodd" clip-rule="evenodd" d="M70.9621 2.1592C69.6105 -0.719735 67.3967 -0.719735 66.0395 2.1592L48.9634 38.4756C47.6116 41.3487 44.024 44.0874 40.9981 44.5487L2.80759 50.3882C-0.223864 50.8554 -0.908075 53.0628 1.28354 55.3052L28.9168 83.5804C31.1083 85.8227 32.4767 90.2491 31.9594 93.4142L25.4348 133.345C24.9175 136.51 26.7087 137.877 29.4175 136.382L63.5753 117.532C66.2787 116.037 70.7119 116.037 73.4207 117.532L107.579 136.394C110.282 137.889 112.078 136.522 111.561 133.357L105.042 93.4261C104.525 90.261 105.893 85.8347 108.085 83.5923L135.718 55.3172C137.91 53.0748 137.22 50.8615 134.194 50.4002L96.0035 44.5607C92.9776 44.1052 89.3954 41.3665 88.0382 38.4875L70.9621 2.1592ZM95.5569 47.5273C95.5556 47.5271 95.5543 47.5269 95.553 47.5267C93.403 47.2021 91.2902 46.1266 89.5751 44.8178C87.8521 43.503 86.2569 41.7445 85.3246 39.7668L85.3232 39.7637L68.5007 3.97506L51.6783 39.7521L51.678 39.7527C50.7474 41.7306 49.1503 43.4882 47.4279 44.8019C45.7121 46.1106 43.599 47.1866 41.4515 47.5143C41.4511 47.5143 41.4507 47.5144 41.4502 47.5145L3.53083 53.3125L31.0623 81.4835C32.5833 83.0397 33.6729 85.173 34.3199 87.2647C34.9683 89.361 35.2728 91.7402 34.9201 93.8981L28.4512 133.489L62.1236 114.907M28.3469 134.442L29.4175 136.382L28.3469 134.442C28.3469 134.442 28.3469 134.442 28.3469 134.442ZM95.5569 47.5273L133.471 53.3245L105.939 81.4954C105.939 81.4954 105.939 81.4955 105.939 81.4955C104.418 83.0517 103.329 85.185 102.682 87.2767C102.033 89.3728 101.729 91.7518 102.081 93.9095C102.081 93.9097 102.081 93.9099 102.081 93.91L108.545 133.5L74.8709 114.906L74.8702 114.906C72.9605 113.852 70.6431 113.411 68.496 113.411C66.3501 113.411 64.0338 113.851 62.1259 114.906M133.718 53.3622L135.572 55.1743L133.718 53.3623L133.718 53.3622Z" fill="#F5C842"/>
<mask id="mask0_208_15" style="mask-type:alpha" maskUnits="userSpaceOnUse" x="0" y="0" width="137" height="137">
<path d="M70.9605 2.1592C69.6033 -0.719735 67.3895 -0.719735 66.0379 2.1592L48.9618 38.4875C47.6046 41.3665 44.0224 44.1052 40.9965 44.5607L2.80602 50.4002C-0.219891 50.8615 -0.909643 53.0748 1.28197 55.3172L28.9152 83.5923C31.1069 85.8347 32.4751 90.261 31.9578 93.4261L25.4388 133.357C24.9215 136.522 26.7181 137.889 29.4215 136.394L63.5793 117.532C66.2881 116.037 70.7213 116.037 73.4247 117.532L107.583 136.382C110.291 137.877 112.083 136.51 111.565 133.345L105.041 93.4142C104.523 90.2491 105.892 85.8228 108.083 83.5804L135.716 55.3052C137.908 53.0628 137.224 50.8554 134.192 50.3882L96.0019 44.5487C92.976 44.0874 89.3884 41.3487 88.0366 38.4756L70.9605 2.1592Z" fill="#F5C842"/>
</mask>
<g mask="url(#mask0_208_15)">
<path d="M68 0H-2V137H68V0Z" fill="#F5C842"/>
</g>
</svg>
