<svg width="171" height="171" viewBox="0 0 171 171" fill="none" xmlns="http://www.w3.org/2000/svg">
<path fill-rule="evenodd" clip-rule="evenodd" d="M88.5731 2.69507C86.8861 -0.898355 84.1229 -0.898355 82.4288 2.69507L61.1149 48.0243C59.4277 51.6104 54.9496 55.0288 51.1728 55.6046L3.50437 62.8934C-0.279422 63.4765 -1.13344 66.2317 1.60208 69.0306L36.0933 104.323C38.8287 107.122 40.5366 112.647 39.8909 116.597L31.7471 166.438C31.1014 170.389 33.3371 172.094 36.7182 170.228L79.3531 146.701C82.7274 144.835 88.2609 144.835 91.6419 146.701L134.277 170.243C137.651 172.109 139.894 170.404 139.248 166.453L131.111 116.612C130.465 112.662 132.173 107.137 134.909 104.338L169.4 69.0455C172.135 66.2466 171.274 63.4841 167.498 62.9083L119.829 55.6196C116.052 55.051 111.581 51.6326 109.887 48.0392L88.5731 2.69507ZM119.272 59.3224C119.27 59.3221 119.268 59.3219 119.267 59.3216C116.583 58.9165 113.946 57.5741 111.805 55.9405C109.655 54.2993 107.664 52.1044 106.5 49.6359L106.498 49.6321L85.5009 4.96158L64.5035 49.6176L64.5032 49.6184C63.3417 52.087 61.3482 54.2808 59.1984 55.9206C57.0567 57.5542 54.4192 58.8971 51.7388 59.3061C51.7382 59.3062 51.7377 59.3063 51.7371 59.3064L4.4071 66.5434L38.7712 101.706C40.6696 103.648 42.0297 106.311 42.8373 108.922C43.6466 111.538 44.0266 114.508 43.5864 117.201L35.5121 166.617L77.5411 143.424M35.3819 167.807L36.7182 170.228L35.3819 167.807C35.3819 167.807 35.3819 167.807 35.3819 167.807ZM119.272 59.3224L166.595 66.5583L132.231 101.721C132.231 101.721 132.231 101.721 132.231 101.721C130.332 103.663 128.972 106.326 128.165 108.937C127.355 111.553 126.975 114.522 127.415 117.216C127.415 117.216 127.416 117.216 127.416 117.216L135.483 166.632L93.452 143.423L93.4512 143.422C91.0675 142.107 88.1749 141.557 85.495 141.557C82.8165 141.557 79.9254 142.106 77.544 143.422M166.903 66.6054L169.217 68.8672L166.903 66.6054L166.903 66.6054Z" fill="#F5C842"/>
<mask id="mask0_218_17" style="mask-type:alpha" maskUnits="userSpaceOnUse" x="0" y="0" width="171" height="171">
<path d="M88.5711 2.69507C86.8771 -0.898355 84.1139 -0.898355 82.4269 2.69507L61.1129 48.0392C59.4189 51.6326 54.9477 55.051 51.1708 55.6196L3.50239 62.9083C-0.27447 63.4841 -1.13541 66.2466 1.60011 69.0455L36.0913 104.338C38.8268 107.137 40.5346 112.662 39.8889 116.612L31.7521 166.453C31.1064 170.404 33.3489 172.109 36.7231 170.243L79.3581 146.701C82.7391 144.835 88.2726 144.835 91.6468 146.701L134.282 170.228C137.663 172.094 139.899 170.389 139.253 166.438L131.109 116.597C130.463 112.647 132.171 107.122 134.907 104.323L169.398 69.0306C172.133 66.2317 171.279 63.4765 167.496 62.8934L119.827 55.6046C116.05 55.0288 111.572 51.6104 109.885 48.0243L88.5711 2.69507Z" fill="#F5C842"/>
</mask>
<g mask="url(#mask0_218_17)">
<path d="M84.876 0H-2.49628V171H84.876V0Z" fill="#F5C842"/>
<path fill-rule="evenodd" clip-rule="evenodd" d="M88.5731 2.69507C86.8861 -0.898355 84.1229 -0.898355 82.4288 2.69507L61.1149 48.0243C59.4277 51.6104 54.9496 55.0288 51.1728 55.6046L3.50437 62.8934C-0.279422 63.4765 -1.13344 66.2317 1.60208 69.0306L36.0933 104.323C38.8287 107.122 40.5366 112.647 39.8909 116.597L31.7471 166.438C31.1014 170.389 33.3371 172.094 36.7182 170.228L79.3531 146.701C82.7274 144.835 88.2608 144.835 91.6419 146.701L134.277 170.243C137.651 172.109 139.894 170.404 139.248 166.453L131.111 116.612C130.465 112.662 132.173 107.137 134.909 104.338L169.4 69.0455C172.135 66.2466 171.274 63.4841 167.498 62.9083L119.829 55.6196C116.052 55.051 111.581 51.6326 109.887 48.0392L88.5731 2.69507ZM118.787 62.5416C118.784 62.541 118.78 62.5405 118.777 62.54C115.403 62.0297 112.266 60.387 109.831 58.5285C107.376 56.6558 104.994 54.0766 103.555 51.0241L103.552 51.017L85.5005 12.6133L67.4496 51.0028L67.4489 51.0043C66.0111 54.0603 63.6246 56.639 61.1727 58.5091C58.7361 60.3676 55.5998 62.0099 52.2308 62.5242C52.2298 62.5244 52.2288 62.5245 52.2278 62.5247L11.1674 68.803L41.0995 99.4303C43.4592 101.845 45.036 105.013 45.9474 107.96C46.862 110.917 47.3415 114.408 46.7993 117.726C46.7993 117.726 46.7993 117.726 46.7992 117.726L39.8054 160.53L75.9657 140.575C75.9667 140.574 75.9677 140.574 75.9688 140.573C75.9695 140.573 75.9703 140.572 75.9711 140.572C78.9559 138.923 82.4246 138.301 85.495 138.301C88.568 138.301 92.0378 138.924 95.0242 140.572L95.0256 140.573L131.19 160.543L124.203 117.741C123.66 114.424 124.14 110.932 125.055 107.975C125.966 105.028 127.543 101.86 129.902 99.4453C129.903 99.4452 129.903 99.4452 129.903 99.4451L159.835 68.8179L118.787 62.5416ZM164.52 64.0129C164.521 64.0128 164.513 64.0224 164.497 64.0418C164.511 64.0227 164.519 64.013 164.52 64.0129ZM132.359 167.75C132.359 167.75 132.359 167.745 132.359 167.737C132.359 167.746 132.359 167.75 132.359 167.75ZM38.6355 167.738C38.6354 167.738 38.6354 167.733 38.636 167.724C38.6359 167.733 38.6357 167.737 38.6355 167.738ZM6.47935 63.9948C6.48004 63.9949 6.48896 64.0053 6.50402 64.0257C6.48619 64.005 6.47866 63.9948 6.47935 63.9948ZM88.8284 5.55063C88.8286 5.55081 88.8255 5.55611 88.8189 5.56608C88.825 5.55541 88.8283 5.55044 88.8284 5.55063ZM82.1796 5.5579C82.1729 5.54777 82.1698 5.54232 82.1699 5.54214C82.17 5.54196 82.1734 5.54703 82.1796 5.5579Z" fill="#F5C842"/>
</g>
</svg>
