<svg width="37" height="37" viewBox="0 0 37 37" fill="none" xmlns="http://www.w3.org/2000/svg">
  <circle cx="18.5" cy="18.5" r="18.5" fill="#F5F0EB"/>
  <path d="M15.0049 18.0868C15.0267 18.2201 15.092 18.3434 15.1937 18.4401L20.7702 23.7731C20.8945 23.9081 21.0733 23.9898 21.2648 23.999C21.4563 24.009 21.6442 23.9456 21.7831 23.8248C21.9228 23.7032 22.0009 23.534 22 23.3582C22 23.1815 21.9201 23.014 21.7794 22.8932L16.6605 18L21.7794 13.1068C21.9201 12.986 22 12.8185 22 12.6418C22.0009 12.466 21.9228 12.2968 21.7831 12.1752C21.6442 12.0544 21.4563 11.991 21.2648 12.001C21.0733 12.0102 20.8945 12.0919 20.7702 12.2269L15.1946 17.5599C15.0476 17.6999 14.9786 17.8941 15.0058 18.0866L15.0049 18.0868Z" fill="#2C1A0E"/>
</svg>
