<svg xmlns="http://www.w3.org/2000/svg" width="141" height="24" viewBox="0 0 141 24">
  <g fill="none" fill-rule="evenodd">
      <g fill="#000">
          <g>
              <path d="M30.519 12.463c.16-.891.563-1.615 1.208-2.175.644-.559 1.437-.838 2.381-.838.943 0 1.76.28 2.45.838.69.56 1.082 1.284 1.174 2.175h-7.213zm10.56-5.41c-1.863-1.734-4.21-2.602-7.04-2.602s-5.137.879-6.92 2.636c-1.783 1.758-2.675 4.12-2.675 7.087 0 2.968.898 5.347 2.692 7.138C28.931 23.104 31.231 24 34.04 24c2.278 0 4.245-.587 5.902-1.763 1.657-1.175 2.76-2.722 3.314-4.639h-6.386c-.276.342-.5.588-.673.736-.172.148-.443.297-.811.445-.368.148-.926.223-1.674.223-.748 0-1.444-.268-2.088-.805-.644-.536-1.024-1.227-1.139-2.071h13.254c.091-.57.137-1.187.137-1.85 0-3.08-.931-5.488-2.795-7.223zM46.216.084L46.216 5.005 44.088 5.005 44.045 9.76 46.216 9.76 46.216 24 51.799 24 51.799 9.759 54.725 9.766 54.725 5.005 51.799 5.005 51.799.084zM80.63 4.69c-1.403 0-2.675.337-3.813 1.01-1.14.674-2.066 1.57-2.779 2.688-.621-1.186-1.49-2.1-2.606-2.739-1.116-.638-2.387-.958-3.813-.958-2.67 0-4.614 1.004-5.834 3.012V5.005h-5.901V24h5.901V13.626c0-1.232.329-2.185.985-2.859.655-.672 1.558-1.01 2.709-1.01 1.15 0 2.053.338 2.71 1.01.655.674.983 1.627.983 2.86V24h5.867V13.626c0-1.232.328-2.185.983-2.859.657-.672 1.56-1.01 2.71-1.01s2.053.338 2.71 1.01c.655.674.983 1.627.983 2.86V24h5.867V12.839c0-2.556-.69-4.553-2.07-5.992-1.381-1.437-3.245-2.156-5.592-2.156M101.98 17.769c-.782.821-1.725 1.233-2.83 1.233-1.104 0-2.065-.412-2.882-1.233-.816-.822-1.225-2.008-1.225-3.56 0-1.553.397-2.734 1.191-3.544s1.743-1.215 2.848-1.215c1.104 0 2.058.405 2.864 1.215.805.81 1.208 1.991 1.208 3.543 0 1.553-.391 2.74-1.173 3.561m4.296-10.665c-1.921-1.769-4.308-2.653-7.161-2.653-2.853 0-5.246.884-7.179 2.653-1.933 1.77-2.9 4.126-2.9 7.07s.973 5.319 2.917 7.121C93.898 23.098 96.297 24 99.151 24c2.852 0 5.233-.902 7.144-2.705 1.91-1.802 2.864-4.177 2.864-7.12 0-2.945-.96-5.302-2.882-7.07M115.979 7.553V5.005h-5.902V24h5.902v-9.038c0-1.598.34-2.716 1.018-3.356.678-.639 1.697-.958 3.055-.958h1.45V4.69c-2.302 0-4.142.351-5.523 2.862M127.643 12.463c.16-.891.564-1.615 1.208-2.175.644-.559 1.438-.838 2.381-.838.944 0 1.76.28 2.45.838.691.56 1.082 1.284 1.174 2.175h-7.213zM141 14.277c0-3.082-.932-5.49-2.796-7.224-1.864-1.734-4.21-2.602-7.04-2.602s-5.138.879-6.92 2.636c-1.784 1.758-2.675 4.12-2.675 7.087 0 2.968.897 5.347 2.692 7.138 1.794 1.793 4.095 2.688 6.902 2.688 2.278 0 4.246-.587 5.902-1.763 1.657-1.175 2.762-2.722 3.314-4.639h-6.386c-.275.342-.5.588-.673.736-.172.148-.443.297-.81.445-.369.148-.927.223-1.674.223-.748 0-1.445-.268-2.089-.805-.644-.536-1.024-1.227-1.138-2.071h13.253c.091-.57.138-1.187.138-1.85z" transform="translate(-65.000000, -59.000000) translate(65.000000, 59.000000)"></path>
              <g>
                  <path d="M12.544 5.24c1.974 0 3.41.858 4.307 2.57h6.865c-.356-1.077-.838-2.044-1.432-2.915C20.388 1.855 17.205.03 12.521.003c-.026 0-.051-.003-.077-.003H12.416C5.285 0 0 4.768 0 12c0 7.231 5.285 12 12.416 12 1.23 0 2.465-.14 3.654-.461 1.073-.29 2.106-.731 3.042-1.328.894-.57 1.695-1.279 2.369-2.094.687-.832 1.238-1.77 1.654-2.763.192-.458.4-.935.458-1.432.06-.521.096-1.043.096-1.568 0-.575-.02-1.128-.097-1.654l-.024-.162c-3.476 0-3.482 0-6.011.002-.008-.047-.021-.098-.011 0h-6.097v3.663l5.606.002c-.314.586-.735 1.087-1.264 1.502-.863.68-1.98 1.018-3.347 1.018-1.907 0-3.428-.612-4.56-1.835-1.133-1.224-1.699-2.86-1.699-4.907S6.751 8.3 7.884 7.077c1.132-1.224 2.686-1.836 4.66-1.836" transform="translate(-65.000000, -59.000000) translate(65.000000, 59.000000)"></path>
              </g>
          </g>
      </g>
  </g>
</svg>