<svg width="95" height="96" viewBox="0 0 95 96" fill="none" xmlns="http://www.w3.org/2000/svg">
  <path d="M92.4599 13.5009H70.5575L69.676 9.14311C68.2197 3.76013 63.3473 0.0151071 57.7714 0H37.1095C31.3975 0.0378288 26.4493 3.96824 25.1178 9.52514L24.3196 13.5009H2.42101C1.0819 13.5009 0 14.5866 0 15.9219C0 17.2573 1.0819 18.343 2.42101 18.343H80.3477C79.4663 30.1837 76.7048 66.9482 75.5435 78.6717C75.4489 82.0347 74.0304 85.2274 71.5942 87.5501C69.6537 89.3659 67.0662 90.3229 64.4106 90.2094C58.6002 90.3229 52.9941 90.3872 47.5168 90.3872C41.6155 90.3872 35.862 90.3153 30.0593 90.1829H29.8664C23.7987 89.7782 19.1384 84.6411 19.3234 78.5621C18.5479 70.7505 17.3336 55.7251 15.722 33.8944C15.6237 32.5439 15.5594 31.7609 15.5556 31.7079H15.5594C15.4951 31.0724 15.1811 30.4898 14.6856 30.085C14.19 29.6841 13.5545 29.4949 12.919 29.563C11.5988 29.6916 10.6228 30.8643 10.7401 32.1883L10.8952 34.2499C12.5105 56.1184 13.7285 71.1897 14.5003 78.8982V78.902C14.4435 83.0972 16.0437 87.1448 18.9565 90.1675C21.8692 93.19 25.8564 94.9414 30.0515 95.0397C35.7825 95.1721 41.5736 95.244 47.5128 95.244C53.0244 95.244 58.6611 95.1797 64.3427 95.0624C68.2428 95.2138 72.037 93.7914 74.878 91.117C78.2258 87.9545 80.1967 83.608 80.367 79.008C81.5358 67.2467 84.3465 29.8043 85.209 18.3422H92.4683C93.8074 18.3422 94.8893 17.2565 94.8893 15.9212C94.8893 14.5859 93.8074 13.5002 92.4683 13.5002L92.4599 13.5009ZM29.835 10.5693H29.8388C30.6672 7.2215 33.6632 4.86479 37.1094 4.84203H57.7713C61.1078 4.83825 64.0471 7.0436 64.97 10.2514L65.6169 13.5009H29.2562L29.835 10.5693Z" fill="#2C1A0E"/>
  <path d="M38.2786 76.4027H38.4034C39.0427 76.3724 39.648 76.0849 40.0754 75.6083C40.5067 75.1316 40.7299 74.5037 40.6958 73.8606L38.7023 34.8522V34.856C38.6077 33.532 37.488 32.5182 36.1602 32.5598C35.5209 32.5901 34.9195 32.8776 34.4882 33.3542C34.0569 33.8309 33.8337 34.4588 33.8678 35.1019L35.8613 74.1103V74.1065C35.9294 75.3926 36.9924 76.4027 38.2786 76.4027H38.2786Z" fill="#2C1A0E"/>
  <path d="M56.6028 76.4027C57.8889 76.3989 58.9482 75.3889 59.0162 74.1028L60.9985 35.0983C61.0325 34.4552 60.8093 33.8272 60.3781 33.3506C59.9468 32.874 59.3454 32.5902 58.7023 32.5562C57.3783 32.5184 56.2586 33.5322 56.164 34.8524L54.1817 73.8607C54.1477 74.5 54.3709 75.128 54.8021 75.6047C55.2334 76.0813 55.8348 76.3688 56.4742 76.399L56.6028 76.4027Z" fill="#2C1A0E"/>
</svg>
