<svg width="107" height="105" viewBox="0 0 107 105" fill="none" xmlns="http://www.w3.org/2000/svg">
  <path d="M92.7027 0.677226C90.9527 0.692851 89.2496 1.29701 87.9109 2.63563L41.7496 48.797C40.7704 49.724 40.4475 50.5574 39.9579 51.7136C39.4527 52.9115 38.9839 54.3491 38.5829 56.0054C37.7809 59.3231 37.2965 63.4012 37.9996 67.4638L37.9944 67.4586C38.1767 68.5836 39.0465 69.469 40.1611 69.6668C44.2236 70.3699 48.3017 69.8856 51.6195 69.0835C53.2757 68.6824 54.7549 68.172 55.9528 67.6668C57.1091 67.1772 57.9424 66.896 58.8695 65.9168C58.9007 65.8856 58.9216 65.8647 58.9528 65.8335L87.5368 37.2135C88.0524 36.7187 88.3545 36.0416 88.3649 35.3228C88.3753 34.6041 88.0941 33.9166 87.5941 33.4062C87.0889 32.8957 86.4014 32.6145 85.6878 32.6145C84.9691 32.6197 84.2868 32.9114 83.7868 33.4218L55.0787 62.0831C55.0162 62.0987 54.5267 62.4737 53.8704 62.7498C52.9954 63.1196 51.7611 63.5362 50.3704 63.8748C48.1985 64.4008 45.6412 64.5883 43.1622 64.4581C43.0372 61.9893 43.2247 59.4112 43.7455 57.2498C44.084 55.8592 44.5007 54.6665 44.8705 53.7914C45.1465 53.1352 45.5267 52.6144 45.5372 52.5414L84.3238 13.7548L93.9071 23.3381L90.4488 26.7548H90.454C89.9331 27.2496 89.6363 27.9319 89.6206 28.6454C89.6102 29.3642 89.8915 30.0569 90.3915 30.5621C90.8967 31.0725 91.5842 31.359 92.3029 31.3538C93.0165 31.3538 93.704 31.0621 94.1988 30.5465L105.032 19.7548C108.089 16.7026 107.371 11.7236 104.324 8.67142L98.9905 3.33808C97.4645 1.81208 95.4541 0.853684 93.4489 0.671417C93.1989 0.650584 92.9489 0.666209 92.6989 0.671417L92.7027 0.677226ZM92.661 6.01056C93.385 5.96368 94.3329 6.22411 95.2026 7.09389L97.8693 9.76056H97.8641V9.80222L100.531 12.4689C101.921 13.8596 101.828 15.3804 101.239 15.9689L97.6557 19.5522L88.0724 9.96889L91.6557 6.38556C91.8745 6.16681 92.2234 6.04181 92.6557 6.01056H92.661ZM12.333 19.3439C5.72887 19.3439 0.333008 24.7398 0.333008 31.3387V92.6667C0.333008 99.2656 5.72887 104.667 12.333 104.667H73.661C80.2599 104.667 85.661 99.2708 85.661 92.6667V51.3387C85.6714 50.6251 85.3902 49.9376 84.8902 49.4272C84.3902 48.922 83.7079 48.6356 82.9943 48.6356C82.2807 48.6356 81.5933 48.922 81.0933 49.4272C80.5933 49.9376 80.3172 50.6251 80.3276 51.3387V92.6667C80.3276 96.4063 77.4006 99.3334 73.661 99.3334H12.333C8.59335 99.3334 5.66629 96.4063 5.66629 92.6667V31.3387C5.66629 27.5991 8.59335 24.672 12.333 24.672H58.9943V24.6772C59.7078 24.6877 60.3954 24.4064 60.9058 23.9064C61.411 23.4064 61.6974 22.7241 61.6974 22.0105C61.6974 21.297 61.411 20.6095 60.9058 20.1095C60.3953 19.6095 59.7078 19.3334 58.9943 19.3438L12.333 19.3439Z" fill="#2C1A0E"/>
</svg>
