<svg width="149" height="27" viewBox="0 0 149 27" fill="none" xmlns="http://www.w3.org/2000/svg">
    <path d="M13.497.42c.262-.556.69-.556.95 0l3.3 7.02c.263.557.955 1.086 1.54 1.174l7.38 1.129c.585.089.718.517.295.95l-5.34 5.464c-.424.433-.688 1.289-.588 1.9l1.26 7.717c.1.612-.248.876-.77.587l-6.601-3.645c-.524-.289-1.38-.289-1.903 0l-6.6 3.643c-.524.288-.87.024-.77-.587l1.26-7.717c.1-.611-.164-1.467-.587-1.9L.983 10.69c-.424-.434-.292-.86.294-.95l7.38-1.129c.585-.09 1.278-.618 1.54-1.174l3.3-7.018zM43.943.42c.262-.556.69-.556.951 0l3.3 7.02c.263.557.955 1.086 1.54 1.174l7.38 1.129c.585.089.718.516.294.95l-5.34 5.464c-.423.433-.688 1.289-.588 1.9l1.26 7.717c.1.612-.247.876-.77.587l-6.6-3.645c-.524-.289-1.38-.289-1.903 0l-6.601 3.642c-.524.29-.87.025-.77-.586l1.261-7.717c.1-.612-.164-1.467-.588-1.9l-5.34-5.465c-.423-.433-.291-.86.295-.95l7.38-1.128c.585-.09 1.278-.619 1.54-1.174l3.3-7.018zM74.39.42c.262-.556.69-.556.95 0l3.3 7.02c.263.557.955 1.086 1.54 1.174l7.38 1.129c.585.089.718.516.295.95l-5.34 5.464c-.424.433-.688 1.289-.588 1.9l1.26 7.717c.1.612-.248.876-.77.587l-6.601-3.645c-.523-.289-1.38-.289-1.903 0l-6.6 3.642c-.524.29-.87.025-.77-.586l1.26-7.717c.1-.612-.164-1.467-.587-1.9l-5.34-5.465c-.424-.433-.292-.86.294-.95l7.38-1.128c.585-.09 1.278-.619 1.54-1.174L74.39.42zM104.836.42c.262-.556.69-.556.951 0l3.3 7.02c.263.557.955 1.086 1.54 1.174l7.38 1.129c.585.089.718.516.294.95l-5.34 5.464c-.423.433-.688 1.289-.588 1.9l1.26 7.717c.1.612-.247.876-.77.587l-6.601-3.645c-.523-.289-1.38-.289-1.902 0l-6.601 3.642c-.524.29-.87.025-.77-.586l1.261-7.717c.1-.612-.164-1.467-.588-1.9l-5.34-5.465c-.424-.433-.291-.86.294-.95l7.38-1.128c.586-.09 1.279-.619 1.54-1.174l3.3-7.018zM135.283.42c.262-.556.69-.556.951 0l3.3 7.02c.262.557.954 1.086 1.539 1.174l7.38 1.129c.585.089.718.516.295.95l-5.34 5.464c-.424.433-.688 1.289-.588 1.9l1.26 7.717c.1.612-.248.876-.77.587l-6.601-3.645c-.524-.289-1.38-.289-1.903 0l-6.601 3.642c-.523.29-.869.025-.769-.586l1.261-7.717c.1-.612-.165-1.467-.588-1.9l-5.341-5.465c-.423-.433-.291-.86.295-.95l7.38-1.128c.585-.09 1.278-.619 1.54-1.174l3.3-7.018z" fill="#F5C842"/>
</svg>
