<svg width="171" height="171" viewBox="0 0 171 171" fill="none" xmlns="http://www.w3.org/2000/svg">
<path fill-rule="evenodd" clip-rule="evenodd" d="M88.5731 2.69507C86.8861 -0.898355 84.1229 -0.898355 82.4288 2.69507L61.1149 48.0243C59.4277 51.6104 54.9496 55.0288 51.1728 55.6046L3.50437 62.8934C-0.279422 63.4765 -1.13344 66.2317 1.60208 69.0306L36.0933 104.323C38.8287 107.122 40.5366 112.647 39.8909 116.597L31.7471 166.438C31.1014 170.389 33.3371 172.094 36.7182 170.228L79.3531 146.701C82.7274 144.835 88.2608 144.835 91.6419 146.701L134.277 170.243C137.651 172.109 139.894 170.404 139.248 166.453L131.111 116.612C130.465 112.662 132.173 107.137 134.909 104.338L169.4 69.0455C172.135 66.2466 171.274 63.4841 167.498 62.9083L119.829 55.6196C116.052 55.051 111.581 51.6326 109.887 48.0392L88.5731 2.69507ZM118.787 62.5416C118.784 62.541 118.78 62.5405 118.777 62.54C115.403 62.0297 112.266 60.387 109.831 58.5285C107.376 56.6558 104.994 54.0766 103.555 51.0241L103.552 51.017L85.5005 12.6133L67.4496 51.0028L67.4489 51.0043C66.0111 54.0603 63.6246 56.639 61.1727 58.5091C58.7361 60.3676 55.5998 62.0099 52.2308 62.5242C52.2298 62.5244 52.2288 62.5245 52.2278 62.5247L11.1674 68.803L41.0995 99.4303C43.4592 101.845 45.036 105.013 45.9474 107.96C46.862 110.917 47.3415 114.408 46.7993 117.726C46.7993 117.726 46.7993 117.726 46.7992 117.726L39.8054 160.53L75.9657 140.575C75.9667 140.574 75.9677 140.574 75.9688 140.573C75.9695 140.573 75.9703 140.572 75.9711 140.572C78.9559 138.923 82.4246 138.301 85.495 138.301C88.568 138.301 92.0378 138.924 95.0242 140.572L95.0256 140.573L131.19 160.543L124.203 117.741C123.66 114.424 124.14 110.932 125.055 107.975C125.966 105.028 127.543 101.86 129.902 99.4453C129.903 99.4452 129.903 99.4452 129.903 99.4451L159.835 68.8179L118.787 62.5416ZM164.52 64.0129C164.521 64.0128 164.513 64.0224 164.497 64.0418C164.511 64.0227 164.519 64.013 164.52 64.0129ZM132.359 167.75C132.359 167.75 132.359 167.745 132.359 167.737C132.359 167.746 132.359 167.75 132.359 167.75ZM38.6355 167.738C38.6354 167.738 38.6354 167.733 38.636 167.724C38.6359 167.733 38.6357 167.737 38.6355 167.738ZM6.47935 63.9948C6.48004 63.9949 6.48896 64.0053 6.50402 64.0257C6.48619 64.005 6.47866 63.9948 6.47935 63.9948ZM88.8284 5.55063C88.8286 5.55081 88.8255 5.55611 88.8189 5.56608C88.825 5.55541 88.8283 5.55044 88.8284 5.55063ZM82.1796 5.5579C82.1729 5.54777 82.1698 5.54232 82.1699 5.54214C82.17 5.54196 82.1734 5.54703 82.1796 5.5579Z" fill="#F5C842"/>
</svg>
