<svg width="307" height="24" viewBox="0 0 307 24" fill="none" xmlns="http://www.w3.org/2000/svg">
    <g clip-path="url(#k07zu8jx0a)">
        <mask id="xw7swhl8wb" style="mask-type:alpha" maskUnits="userSpaceOnUse" x="259" y="1" width="48" height="23">
            <path d="M259.587 1.393h47.345v22.25h-47.345V1.394z" fill="#fff"/>
        </mask>
        <g mask="url(#xw7swhl8wb)">
            <path fill-rule="evenodd" clip-rule="evenodd" d="M259.587 2.896c0-.827.663-1.503 1.474-1.503h44.397c.811 0 1.474.676 1.474 1.503v19.245c0 .827-.663 1.503-1.474 1.503h-44.397c-.811 0-1.474-.676-1.474-1.503V2.896z" fill="#EDAA16"/>
        </g>
        <mask id="1vq4aa08oc" style="mask-type:alpha" maskUnits="userSpaceOnUse" x="259" y="1" width="48" height="23">
            <path d="M259.587 23.644h47.345V1.393h-47.345v22.25z" fill="#fff"/>
        </mask>
        <g mask="url(#1vq4aa08oc)">
            <path d="M259.587 23.644h47.345V1.393h-47.345v22.25z" fill="#D8D8D8"/>
            <path fill-rule="evenodd" clip-rule="evenodd" d="M259.587 21.459h47.345V3.577h-47.345V21.46z" fill="#FEFEFE"/>
            <path fill-rule="evenodd" clip-rule="evenodd" d="M299.711 8.222c-2.166 0-3.932 1.8-3.932 4.01 0 2.207 1.766 4.008 3.932 4.008s3.931-1.8 3.931-4.009c0-2.208-1.765-4.01-3.931-4.01zM267.302 8.222c-2.166 0-3.932 1.8-3.932 4.01 0 2.207 1.766 4.008 3.932 4.008s3.932-1.8 3.932-4.009c0-2.208-1.766-4.01-3.932-4.01z" fill="#919191"/>
            <path fill-rule="evenodd" clip-rule="evenodd" d="M299.711 18.566c-3.422 0-6.213-2.845-6.213-6.335 0-3.49 2.791-6.334 6.213-6.334 3.421 0 6.212 2.844 6.212 6.334 0 3.49-2.791 6.335-6.212 6.335zm-26.197-6.335c0 3.49-2.79 6.335-6.212 6.335-3.422 0-6.212-2.845-6.212-6.335 0-3.49 2.79-6.334 6.212-6.334 3.422 0 6.212 2.844 6.212 6.334zm25.888-7.538c-3.64-.085-5.351 2.295-7.835 5.23l-2.342 2.769 3.71 4.529c.884 1.391-.803 2.772-1.85 1.499l-3.43-4.172-3.342 3.95c-1.065 1.258-2.732-.147-1.83-1.525l3.629-4.303-2.378-2.892 1.53-1.93 2.417 2.96 2.084-2.471c1.023-1.212 2.065-2.818 3.417-3.644h-33.595v15.65h7.854c3.641 0 5.293-2.218 7.71-5.211l2.28-2.824-3.812-4.44c-.915-1.37.74-2.79 1.815-1.542l3.523 4.09 3.254-4.028c1.035-1.283 2.733.083 1.862 1.482l-3.53 4.388 2.442 2.835-1.538 1.858-2.431-2.796-2.028 2.52c-.994 1.235-2.002 2.812-3.334 3.669h33.278V4.693h-7.53z" fill="#919191"/>
        </g>
        <path fill-rule="evenodd" clip-rule="evenodd" d="M47.027 8.556c-.288 2.004-1.736 2.004-3.136 2.004h-.796l.558-3.742a.449.449 0 0 1 .435-.392h.365c.953 0 1.854 0 2.317.574.278.343.362.852.257 1.556zm-.609-5.228h-5.28c-.361 0-.669.278-.725.654l-2.135 14.315c-.042.283.164.538.435.538h2.71a.523.523 0 0 0 .506-.458l.606-4.058c.056-.377.364-.655.724-.655h1.671c3.478 0 5.485-1.78 6.01-5.307.236-1.542.01-2.754-.674-3.603-.75-.933-2.082-1.426-3.848-1.426zM8.755 8.556c-.289 2.004-1.736 2.004-3.136 2.004h-.797l.559-3.742a.449.449 0 0 1 .434-.392h.366c.953 0 1.853 0 2.317.574.278.343.362.852.257 1.556zm-.61-5.228h-5.28c-.36 0-.668.278-.725.654L.005 18.297c-.042.283.165.538.435.538h2.521c.361 0 .669-.277.725-.655l.576-3.861c.056-.377.364-.655.725-.655h1.67c3.478 0 5.486-1.78 6.01-5.307.236-1.542.01-2.754-.673-3.603-.752-.933-2.082-1.426-3.849-1.426zM20.727 13.33c-.25 1.561-1.431 2.609-2.936 2.609-.755 0-1.36-.255-1.747-.737-.385-.479-.53-1.16-.408-1.919.234-1.546 1.433-2.627 2.916-2.627.739 0 1.338.257 1.734.744.399.49.555 1.176.441 1.93zm3.626-5.315h-2.601a.46.46 0 0 0-.448.402l-.114.763-.182-.276c-.564-.859-1.82-1.145-3.074-1.145-2.874 0-5.33 2.286-5.807 5.492-.25 1.6.104 3.129.968 4.196.794.98 1.927 1.389 3.277 1.389 2.317 0 3.602-1.563 3.602-1.563l-.116.76c-.043.288.169.549.447.549h2.344a.767.767 0 0 0 .745-.669l1.407-9.348c.043-.289-.17-.55-.448-.55zM59 13.33c-.251 1.561-1.431 2.609-2.937 2.609-.754 0-1.358-.255-1.747-.737-.385-.479-.53-1.16-.408-1.919.235-1.546 1.434-2.627 2.916-2.627.739 0 1.339.257 1.735.744.398.49.555 1.176.441 1.93zm3.626-5.315h-2.602a.46.46 0 0 0-.447.402l-.114.763-.183-.276c-.563-.859-1.819-1.145-3.073-1.145-2.874 0-5.33 2.286-5.808 5.492-.248 1.6.105 3.129.969 4.196.794.98 1.927 1.389 3.277 1.389 2.317 0 3.602-1.563 3.602-1.563l-.116.76c-.044.288.169.549.447.549h2.343a.767.767 0 0 0 .746-.669l1.406-9.348c.044-.289-.169-.55-.447-.55zM37.838 8.497h-2.505a.711.711 0 0 0-.599.342l-3.456 5.486-1.464-5.272c-.092-.33-.374-.556-.693-.556h-2.463c-.298 0-.506.315-.41.619l2.758 8.728-2.595 3.946c-.204.31.002.738.354.738h2.503a.71.71 0 0 0 .595-.335L38.195 9.23c.199-.31-.007-.734-.357-.734zM65.324 3.72l-2.24 14.578a.462.462 0 0 0 .45.538h2.253c.372 0 .69-.278.748-.655l2.208-14.315a.462.462 0 0 0-.449-.538h-2.52a.458.458 0 0 0-.45.393z" fill="#fff"/>
        <mask id="on7jivhkdd" style="mask-type:alpha" maskUnits="userSpaceOnUse" x="78" y="2" width="14" height="17">
            <path d="M78.232 2.617h12.797v16.171H78.232V2.618z" fill="#fff"/>
        </mask>
        <g mask="url(#on7jivhkdd)">
            <path fill-rule="evenodd" clip-rule="evenodd" d="M88.03 10.703a8.139 8.139 0 0 1 3-6.34 7.748 7.748 0 0 0-4.9-1.746c-4.362 0-7.898 3.62-7.898 8.086 0 4.465 3.536 8.085 7.898 8.085a7.749 7.749 0 0 0 4.9-1.746 8.139 8.139 0 0 1-3-6.34z" fill="#fff"/>
        </g>
        <path fill-rule="evenodd" clip-rule="evenodd" d="M88.03 10.703a8.139 8.139 0 0 0 3 6.34c1.826-1.482 2.998-3.77 2.998-6.34a8.139 8.139 0 0 0-2.999-6.34 8.139 8.139 0 0 0-2.999 6.34z" fill="#E8E8E8"/>
        <path fill-rule="evenodd" clip-rule="evenodd" d="M116.81 8.53a1.937 1.937 0 0 0-.654-.439 2.143 2.143 0 0 0-.827-.156c-.159 0-.324.014-.495.042a2.14 2.14 0 0 0-.502.148c-.164.07-.32.169-.468.294a1.753 1.753 0 0 0-.386.472 1.906 1.906 0 0 0-.717-.702 2.071 2.071 0 0 0-1.034-.254c-.13 0-.265.012-.404.036a1.82 1.82 0 0 0-.415.126 1.66 1.66 0 0 0-.736.632v-.654h-1.1v5.359h1.111v-2.97c0-.228.035-.43.106-.608.07-.177.165-.325.283-.444.118-.12.256-.21.415-.272a1.39 1.39 0 0 1 .508-.092c.373 0 .663.121.87.364.206.242.309.589.309 1.04v2.982h1.11v-2.97c0-.228.036-.43.106-.608.071-.177.165-.325.283-.444.118-.12.257-.21.415-.272a1.39 1.39 0 0 1 .508-.092c.374 0 .664.121.87.364.206.242.31.589.31 1.04v2.982h1.11v-3.368c0-.313-.05-.6-.151-.861a1.964 1.964 0 0 0-.425-.674zM122.623 11.437c-.076.208-.184.39-.322.542a1.508 1.508 0 0 1-1.143.492 1.48 1.48 0 0 1-1.158-.506 1.628 1.628 0 0 1-.311-.545 2.003 2.003 0 0 1-.11-.666c0-.235.037-.457.11-.666.072-.208.176-.39.311-.545a1.485 1.485 0 0 1 1.158-.506c.237 0 .452.044.645.131.193.088.359.208.498.361.138.153.246.334.322.543.076.209.115.436.115.682 0 .246-.039.474-.115.683zm.044-2.713a2.066 2.066 0 0 0-.678-.574c-.27-.143-.592-.215-.967-.215-.368 0-.711.07-1.027.21a2.56 2.56 0 0 0-.831.584 2.72 2.72 0 0 0-.558.892 3.103 3.103 0 0 0-.202 1.133c0 .41.068.788.202 1.133.135.345.321.642.558.892a2.514 2.514 0 0 0 1.858.794c.375 0 .697-.07.967-.212s.495-.332.678-.57v.642h1.142V8.075h-1.142v.649zM129.059 10.746c-.321-.256-.767-.426-1.339-.512l-.541-.084a4.723 4.723 0 0 1-.339-.064 1.076 1.076 0 0 1-.273-.098.518.518 0 0 1-.183-.157.39.39 0 0 1-.069-.235c0-.19.087-.344.26-.461.173-.118.416-.176.729-.176.164 0 .326.015.484.044.159.03.309.067.451.112a3.219 3.219 0 0 1 .683.302l.492-.912a3.31 3.31 0 0 0-.957-.416 4.43 4.43 0 0 0-1.163-.149c-.336 0-.636.04-.902.12-.266.08-.493.195-.68.342a1.478 1.478 0 0 0-.432.54c-.1.212-.15.451-.15.716 0 .432.15.782.45 1.049.301.266.743.44 1.325.523l.547.072c.313.045.543.117.689.216.145.099.218.224.218.377 0 .202-.1.361-.301.479-.2.117-.497.176-.89.176a3.36 3.36 0 0 1-.577-.045 2.856 2.856 0 0 1-.464-.12 2.255 2.255 0 0 1-.377-.174 2.79 2.79 0 0 1-.309-.21l-.53.879c.189.145.388.263.596.352a3.956 3.956 0 0 0 1.18.31c.179.017.335.026.47.026.375 0 .711-.043 1.008-.129.297-.085.547-.206.749-.36a1.55 1.55 0 0 0 .626-1.261c0-.46-.161-.817-.481-1.072zM136.558 10.295c.029-.194.08-.372.153-.534.073-.162.167-.302.281-.42.115-.117.252-.207.41-.27.159-.064.34-.096.544-.096.364 0 .661.116.891.347.229.231.375.556.437.973h-2.716zm3.194-1.58a2.245 2.245 0 0 0-.781-.576 2.43 2.43 0 0 0-1.003-.204c-.386 0-.739.068-1.057.204a2.387 2.387 0 0 0-.823.576 2.632 2.632 0 0 0-.535.892 3.29 3.29 0 0 0-.192 1.147c0 .425.066.811.197 1.158.131.347.315.643.552.89.237.246.519.436.847.57a2.83 2.83 0 0 0 1.082.201c.397 0 .775-.056 1.134-.168a2.833 2.833 0 0 0 1.019-.587l-.568-.833a2.54 2.54 0 0 1-.725.416 2.236 2.236 0 0 1-.789.149c-.186 0-.364-.026-.536-.079a1.391 1.391 0 0 1-.819-.665 1.746 1.746 0 0 1-.202-.621h3.868a3.288 3.288 0 0 0 .022-.436c0-.418-.061-.8-.183-1.145a2.7 2.7 0 0 0-.508-.889zM154.882 11.437c-.077.208-.184.39-.323.542a1.494 1.494 0 0 1-1.142.492 1.487 1.487 0 0 1-1.158-.506 1.647 1.647 0 0 1-.312-.545 2.003 2.003 0 0 1-.109-.666c0-.235.036-.457.109-.666.073-.208.177-.39.312-.545a1.49 1.49 0 0 1 1.158-.506 1.497 1.497 0 0 1 1.142.492c.139.153.246.334.323.543.076.209.115.436.115.682 0 .246-.039.474-.115.683zm.043-2.713a2.063 2.063 0 0 0-.677-.574c-.27-.143-.592-.215-.967-.215a2.517 2.517 0 0 0-1.858.794 2.72 2.72 0 0 0-.558.892 3.103 3.103 0 0 0-.202 1.133c0 .41.068.788.202 1.133.135.345.321.642.558.892a2.522 2.522 0 0 0 1.858.794c.375 0 .697-.07.967-.212a2.03 2.03 0 0 0 .677-.57v.642h1.143V8.075h-1.143v.649zM133.956 12.365c-.184.071-.366.106-.544.106a.92.92 0 0 1-.325-.056.668.668 0 0 1-.262-.176.86.86 0 0 1-.178-.31 1.407 1.407 0 0 1-.066-.459V9.137h1.835V8.075h-1.835V6.452h-1.147v1.623h-1.044v1.062h1.044v2.355c0 .713.164 1.238.494 1.575.33.338.792.506 1.386.506.331 0 .629-.052.893-.156a3.7 3.7 0 0 0 .488-.235l-.39-.979a2.96 2.96 0 0 1-.349.162zM144.267 7.935c-.321 0-.61.06-.869.179-.259.12-.475.406-.65.664v-.703h-1.037v5.359h1.048v-2.948c0-.228.031-.431.093-.61a1.33 1.33 0 0 1 .256-.453 1.07 1.07 0 0 1 .394-.28c.153-.063.32-.095.503-.095a2.194 2.194 0 0 1 .677.113l.338-1.118a2.087 2.087 0 0 0-.28-.072 2.813 2.813 0 0 0-.473-.036zM160.143 7.935c-.32 0-.61.06-.869.179-.259.12-.475.406-.65.664v-.703h-1.037v5.359h1.048v-2.948c0-.228.031-.431.093-.61.062-.18.147-.33.257-.453a1.06 1.06 0 0 1 .393-.28c.153-.063.32-.095.503-.095a2.187 2.187 0 0 1 .677.113l.338-1.118a2.049 2.049 0 0 0-.28-.072 2.804 2.804 0 0 0-.473-.036zM165.434 11.437c-.077.208-.184.39-.323.542a1.494 1.494 0 0 1-1.141.492 1.487 1.487 0 0 1-1.159-.506 1.647 1.647 0 0 1-.312-.545 2.003 2.003 0 0 1-.109-.666c0-.235.036-.457.109-.666.073-.208.177-.39.312-.545a1.49 1.49 0 0 1 1.159-.506 1.497 1.497 0 0 1 1.141.492c.139.153.246.334.323.543.076.209.115.436.115.682 0 .246-.039.474-.115.683zm.044-5.54v2.827a2.066 2.066 0 0 0-.678-.574c-.27-.143-.592-.215-.967-.215a2.518 2.518 0 0 0-1.858.794c-.237.25-.423.547-.557.892a3.083 3.083 0 0 0-.203 1.133c0 .41.068.788.203 1.133a2.7 2.7 0 0 0 .557.892 2.522 2.522 0 0 0 1.858.794c.375 0 .697-.07.967-.212s.495-.332.678-.57v.642h1.142V5.896h-1.142zM147 9.515c.146-.15.319-.269.519-.352a1.67 1.67 0 0 1 .651-.126c.256 0 .494.042.715.126a1.7 1.7 0 0 1 .554.338l.55-.936a2.78 2.78 0 0 0-.696-.415 2.895 2.895 0 0 0-1.123-.215c-.405 0-.779.072-1.123.215a2.69 2.69 0 0 0-.891.593 2.75 2.75 0 0 0-.587.892 2.88 2.88 0 0 0-.214 1.12c0 .402.071.775.214 1.118.142.343.338.64.587.892.249.252.546.45.891.593.344.143.718.215 1.123.215.404 0 .778-.072 1.123-.215a2.78 2.78 0 0 0 .696-.415l-.55-.936a1.7 1.7 0 0 1-.554.338 1.997 1.997 0 0 1-.715.126 1.67 1.67 0 0 1-.651-.126 1.541 1.541 0 0 1-.519-.352 1.628 1.628 0 0 1-.344-.543 1.864 1.864 0 0 1-.126-.696c0-.253.042-.486.126-.696a1.63 1.63 0 0 1 .344-.543zM104.223 16.06v-.892l-.127.77h-.141l-.128-.768v.89h-.134v-1.286h.191l.141.824.141-.824h.191v1.286h-.134zm-.954 0v-1.008h-.18v-.278h.493v.278h-.18v1.008h-.133zM168.186 13.415v.105h.115a.1.1 0 0 0 .054-.012c.013-.008.02-.021.02-.04 0-.018-.007-.032-.02-.04a.093.093 0 0 0-.054-.013h-.115zm.117-.139c.076 0 .132.018.171.053a.178.178 0 0 1 .058.139.16.16 0 0 1-.042.114.206.206 0 0 1-.121.059l.17.205h-.184l-.151-.2h-.018v.2h-.154v-.57h.271zm-.035.75a.441.441 0 0 0 .407-.283.475.475 0 0 0 .034-.182.477.477 0 0 0-.128-.328.454.454 0 0 0-.141-.099.428.428 0 0 0-.348 0 .447.447 0 0 0-.237.246.497.497 0 0 0 0 .362.467.467 0 0 0 .237.247.424.424 0 0 0 .176.037zm0-1.107a.636.636 0 0 1 .582.393.632.632 0 0 1 0 .498.634.634 0 0 1-.582.395.624.624 0 0 1-.587-.395.635.635 0 0 1-.049-.25.631.631 0 0 1 .183-.452.629.629 0 0 1 .453-.19z" fill="#fff"/>
        <mask id="uu9geax4qe" style="mask-type:alpha" maskUnits="userSpaceOnUse" x="91" y="2" width="13" height="17">
            <path d="M91.03 2.617h12.797v16.171H91.029V2.618z" fill="#fff"/>
        </mask>
        <g mask="url(#uu9geax4qe)">
            <path fill-rule="evenodd" clip-rule="evenodd" d="M95.928 2.617a7.748 7.748 0 0 0-4.899 1.746 8.14 8.14 0 0 1 3 6.34 8.14 8.14 0 0 1-3 6.34 7.748 7.748 0 0 0 4.9 1.745c4.362 0 7.898-3.62 7.898-8.085 0-4.466-3.536-8.086-7.898-8.086z" fill="#fff"/>
        </g>
        <mask id="0g7cdn6eaf" style="mask-type:alpha" maskUnits="userSpaceOnUse" x="201" y="4" width="12" height="13">
            <path d="M207.494 4.86c-.735 0-1.162.272-1.447.923l-3.945 9.02c-.184.42-.365.841-.556 1.282 1.049 0 2.069.003 3.088-.006.054 0 .133-.083.156-.142.175-.44.345-.883.501-1.33.052-.15.12-.204.291-.203 1.132.009 2.263.012 3.395-.002.226-.002.291.073.328.268.087.469.198.934.301 1.41h2.821V16c-.091-.38-.189-.757-.272-1.138-.649-2.97-1.294-5.942-1.941-8.913-.079-.362-.161-.723-.243-1.09h-2.477zm.31 3.118.037.007.894 4.107h-2.487l1.556-4.114z" fill="#fff"/>
        </mask>
        <g mask="url(#0g7cdn6eaf)">
            <path fill-rule="evenodd" clip-rule="evenodd" d="M207.494 4.86c-.735 0-1.162.272-1.447.923l-3.945 9.02c-.184.42-.365.841-.556 1.282 1.049 0 2.069.003 3.088-.006.054 0 .133-.083.156-.142.175-.44.345-.883.501-1.33.052-.15.12-.204.291-.203 1.132.009 2.263.012 3.395-.002.226-.002.291.073.328.268.087.469.198.934.301 1.41h2.821V16c-.091-.38-.189-.757-.272-1.138-.649-2.97-1.294-5.942-1.941-8.913-.079-.362-.161-.723-.243-1.09h-2.477zm.31 3.118.037.007.894 4.107h-2.487l1.556-4.114z" fill="#fff"/>
        </g>
        <mask id="dk9uo0s7yg" style="mask-type:alpha" maskUnits="userSpaceOnUse" x="193" y="4" width="10" height="13">
            <path d="M199.14 4.86c-.061.014-.121.034-.182.04-1.104.128-2.141.431-3.014 1.113-1.004.785-1.489 1.794-1.348 3.037.094.83.589 1.455 1.273 1.923.533.366 1.132.644 1.696.97.361.21.742.402 1.059.663.482.396.431 1.03-.098 1.368a2.347 2.347 0 0 1-.826.327c-1.106.197-2.173.016-3.207-.38-.216-.083-.428-.177-.653-.27l-.567 2.522c.04.023.062.041.088.051.087.034.173.068.262.096 1.021.32 2.063.48 3.122.48h.006c.311 0 .623-.014.936-.042.992-.087 1.943-.324 2.784-.855 1.337-.843 1.926-2.036 1.728-3.55-.113-.855-.647-1.488-1.379-1.949-.622-.39-1.294-.709-1.935-1.075a4.698 4.698 0 0 1-.801-.548c-.344-.31-.339-.732.022-1.027.21-.171.48-.307.748-.378.657-.174 1.331-.121 1.988.017.48.1.948.257 1.437.394l.548-2.435c-.371-.1-.712-.207-1.061-.284-.383-.084-.772-.14-1.158-.208h-1.468z" fill="#fff"/>
        </mask>
        <g mask="url(#dk9uo0s7yg)">
            <path fill-rule="evenodd" clip-rule="evenodd" d="M199.14 4.86c-.061.014-.121.034-.182.04-1.104.128-2.141.431-3.014 1.113-1.004.785-1.489 1.794-1.348 3.037.094.83.589 1.455 1.273 1.923.533.366 1.132.644 1.696.97.361.21.742.402 1.059.663.482.396.431 1.03-.098 1.368a2.347 2.347 0 0 1-.826.327c-1.106.197-2.173.016-3.207-.38-.216-.083-.428-.177-.653-.27l-.567 2.522c.04.023.062.041.088.051.087.034.173.068.262.096 1.021.32 2.063.48 3.122.48h.006c.311 0 .623-.014.936-.042.992-.087 1.943-.324 2.784-.855 1.337-.843 1.926-2.036 1.728-3.55-.113-.855-.647-1.488-1.379-1.949-.622-.39-1.294-.709-1.935-1.075a4.698 4.698 0 0 1-.801-.548c-.344-.31-.339-.732.022-1.027.21-.171.48-.307.748-.378.657-.174 1.331-.121 1.988.017.48.1.948.257 1.437.394l.548-2.435c-.371-.1-.712-.207-1.061-.284-.383-.084-.772-.14-1.158-.208h-1.468z" fill="#fff"/>
        </g>
        <mask id="v8ksdho64h" style="mask-type:alpha" maskUnits="userSpaceOnUse" x="175" y="4" width="15" height="13">
            <path d="M186.25 5.031c-.979 2.417-1.964 4.831-2.949 7.246-.018.046-.047.088-.088.163l-.064-.304c-.397-2.044-.791-4.088-1.193-6.131-.142-.722-.685-1.145-1.437-1.146h-4.756c-.33 0-.33 0-.334.337l.115.028c.887.204 1.758.456 2.596.814.523.223.802.587.941 1.12.759 2.903 1.54 5.802 2.308 8.703.044.167.106.233.298.23.906-.012 1.812-.01 2.718-.002.165.002.249-.04.317-.198 1.429-3.322 2.866-6.641 4.301-9.96l.455-1.063c-.084-.003-.143-.008-.203-.008h-.78c-.66 0-1.319 0-1.978-.004h-.006c-.143 0-.208.045-.261.175z" fill="#fff"/>
        </mask>
        <g mask="url(#v8ksdho64h)">
            <path fill-rule="evenodd" clip-rule="evenodd" d="M186.25 5.031c-.979 2.417-1.964 4.831-2.949 7.246-.018.046-.047.088-.088.163l-.064-.304c-.397-2.044-.791-4.088-1.193-6.131-.142-.722-.685-1.145-1.437-1.146h-4.756c-.33 0-.33 0-.334.337l.115.028c.887.204 1.758.456 2.596.814.523.223.802.587.941 1.12.759 2.903 1.54 5.802 2.308 8.703.044.167.106.233.298.23.906-.012 1.812-.01 2.718-.002.165.002.249-.04.317-.198 1.429-3.322 2.866-6.641 4.301-9.96l.455-1.063c-.084-.003-.143-.008-.203-.008h-.78c-.66 0-1.319 0-1.978-.004h-.006c-.143 0-.208.045-.261.175z" fill="#fff"/>
        </g>
        <mask id="uxyrlbh4ri" style="mask-type:alpha" maskUnits="userSpaceOnUse" x="188" y="4" width="7" height="13">
            <path d="m191.144 4.805-2.606 11.28h.26c.867 0 1.734-.009 2.6.006.242.005.325-.064.374-.28.708-3.104 1.427-6.208 2.144-9.311l.39-1.695h-3.162z" fill="#fff"/>
        </mask>
        <g mask="url(#uxyrlbh4ri)">
            <path fill-rule="evenodd" clip-rule="evenodd" d="m191.144 4.805-2.606 11.28h.26c.867 0 1.734-.009 2.6.006.242.005.325-.064.374-.28.708-3.104 1.427-6.208 2.144-9.311l.39-1.695h-3.162z" fill="#fff"/>
        </g>
        <path fill-rule="evenodd" clip-rule="evenodd" d="M224.027 24h22.521V1.2h-22.521V24z" fill="#fff"/>
        <path fill-rule="evenodd" clip-rule="evenodd" d="m232.185 20.392 8.906.02 1.398-1.58 1.409 1.573h2.65v-2.304l-1.66-1.813 1.66-1.796v-2.256l-14.363-.013v8.17z" fill="#E8E8E8"/>
        <path fill-rule="evenodd" clip-rule="evenodd" d="M233.145 19.497v-6.375h5.339v1.468h-3.611v.997h3.525v1.444h-3.525v.98h3.611v1.486h-5.339z" fill="#919191"/>
        <path fill-rule="evenodd" clip-rule="evenodd" d="m244.36 13.122-1.811 2.02-1.805-2.02h-2.287l2.955 3.183-2.955 3.192h2.225l1.819-2.041 1.837 2.04h2.21v-.09l-2.891-3.1 2.891-3.134v-.05h-2.188z" fill="#919191"/>
        <path fill-rule="evenodd" clip-rule="evenodd" d="M232.855 4.971h3.462l1.217 2.796V4.97h4.274l.737 2.095.739-2.095h3.264v8.17h-17.249l3.556-8.17z" fill="#E8E8E8"/>
        <path fill-rule="evenodd" clip-rule="evenodd" d="m233.751 9.524.838-2.028.837 2.028h-1.675zm-.24-3.665-2.794 6.37h1.916l.527-1.276h2.856l.527 1.275h1.964l-2.782-6.369h-2.214z" fill="#919191"/>
        <path fill-rule="evenodd" clip-rule="evenodd" d="M238.481 12.227v-6.37l2.694.01 1.386 3.916 1.395-3.925h2.592v6.37l-1.668.014V7.867l-1.575 4.36h-1.522l-1.608-4.375v4.375h-1.694z" fill="#919191"/>
    </g>
    <defs>
        <clipPath id="k07zu8jx0a">
            <path fill="#fff" d="M0 0h307v24H0z"/>
        </clipPath>
    </defs>
</svg>
